#!OML:ASF E:\acrobat2\Project_11_07_03\Capture day 1\Session 1\Acrobat.ASF
:FULLY-SPECIFIED
:DEGREES
733
root 1.12963 17.948 28.3148 353.947 -84.5965 15.01
lowerback -5.99883 0.62079 -1.27999
upperback -3.93004 0.782565 -2.00937
thorax -0.672418 0.347245 -1.30454
lowerneck -1.72225 -2.73742 0.712582
upperneck 1.52062 -3.72444 2.31393
head 0.779424 -1.83883 0.543959
rclavicle -7.04443e-015 1.55052e-014
rhumerus -15.9533 -33.4561 0.633436
rradius 21.3141
rwrist 7.65262
rhand -15.4227 -50.0584
rfingers 7.12502
rthumb 10.7571 -439.763
lclavicle -7.04443e-015 1.55052e-014
lhumerus 1.25348 9.61323 -1.23646
lradius 22.9294
lwrist 16.7896
lhand -14.7905 -7.42351
lfingers 7.12502
lthumb 11.3668 22.2484
rfemur 11.2962 27.3915 10.8896
rtibia -5.96165
rfoot -46.5656 -36.5786
rtoes 18.4776
lfemur 7.26067 -12.1483 -9.19466
ltibia -5.24782
lfoot -30.4348 5.4993
ltoes 44.4153
734
root 1.13413 17.9458 28.3132 355.283 -84.6106 13.6579
lowerback -6.03953 0.598527 -1.1829
upperback -3.87615 0.753123 -1.95304
thorax -0.593896 0.332388 -1.30182
lowerneck -1.77881 -2.72179 0.657588
upperneck 1.54571 -3.70461 2.35813
head 0.798683 -1.82814 0.565819
rclavicle 1.44119e-015 8.34896e-015
rhumerus -16.0339 -30.6904 0.319478
rradius 21.9137
rwrist 4.91281
rhand -15.3232 -50.5547
rfingers 7.12502
rthumb 10.853 -440.254
lclavicle 1.44119e-015 8.34896e-015
lhumerus 1.3495 10.4529 -1.09963
lradius 22.7286
lwrist 15.986
lhand -14.3869 -7.74743
lfingers 7.12502
lthumb 11.756 21.9027
rfemur 11.2991 27.4345 11.0603
rtibia -5.9622
rfoot -46.8187 -36.1957
rtoes 19.5892
lfemur 7.25787 -12.1165 -9.03701
ltibia -5.24484
lfoot -30.4287 5.61377
ltoes 44.0378
735
root 1.13992 17.9426 28.3098 355.305 -84.6498 13.6202
lowerback -6.04222 0.602731 -1.21547
upperback -3.83691 0.762626 -1.9388
thorax -0.55245 0.338385 -1.26806
lowerneck -1.81162 -2.72717 0.638268
upperneck 1.56375 -3.71256 2.37436
head 0.810645 -1.83164 0.573294
rclavicle 5.90142e-015 -1.19271e-014
rhumerus -15.5824 -37.2752 0.893742
rradius 20.8323
rwrist 11.5403
rhand -14.7823 -49.4711
rfingers 7.12502
rthumb 11.3747 -439.143
lclavicle 5.90142e-015 -1.19271e-014
lhumerus 1.61697 11.8648 -0.808234
lradius 22.3564
lwrist 14.4558
lhand -14.167 -7.99645
lfingers 7.12502
lthumb 11.968 21.6414
rfemur 11.3821 27.8207 11.1819
rtibia -6.08276
rfoot -47.3146 -36.3615
rtoes 20.106
lfemur 7.22836 -11.8359 -8.96137
ltibia -5.19464
lfoot -30.1806 5.62143
ltoes 43.8521
736
root 1.14705 17.9404 28.3057 353.565 -84.7088 15.3523
lowerback -6.0171 0.601142 -1.44482
upperback -3.81391 0.771557 -1.93959
thorax -0.545944 0.346744 -1.13988
lowerneck -1.72336 -2.71812 0.601843
upperneck 1.48193 -3.69401 2.2978
head 0.769292 -1.82452 0.557847
rclavicle 9.18137e-015 -5.96354e-015
rhumerus -15.529 -42.0448 1.35879
rradius 20.4663
rwrist 16.301
rhand -14.4883 -48.7391
rfingers 7.12502
rthumb 11.6583 -438.395
lclavicle 9.18137e-015 -5.96354e-015
lhumerus 1.71751 12.6336 -0.643594
lradius 22.2097
lwrist 13.6635
lhand -14.0745 -8.02851
lfingers 7.12502
lthumb 12.0573 21.6041
rfemur 11.4373 28.1639 11.0809
rtibia -6.1827
rfoot -47.6239 -36.6752
rtoes 19.8131
lfemur 7.22576 -11.7263 -9.11578
ltibia -5.20003
lfoot -30.1117 5.77157
ltoes 43.5627
737
root 1.15353 17.9406 28.3038 354.576 -84.7576 14.3051
lowerback -5.96594 0.611384 -1.38024
upperback -3.79078 0.783208 -1.89518
thorax -0.549926 0.352803 -1.13012
lowerneck -1.66881 -2.71045 0.553308
upperneck 1.43899 -3.68052 2.29347
head 0.74764 -1.8188 0.565698
rclavicle -1.45734e-014 3.10104e-014
rhumerus -15.6948 -42.8503 1.51793
rradius 20.6383
rwrist 17.0859
rhand -14.1889 -48.7412
rfingers 7.12502
rthumb 11.947 -438.38
lclavicle -1.45734e-014 3.10104e-014
lhumerus 1.74127 13.0247 -0.540628
lradius 22.278
lwrist 13.394
lhand -13.8851 -7.99768
lfingers 7.12502
lthumb 12.2399 21.6242
rfemur 11.433 28.0931 11.1884
rtibia -6.14332
rfoot -47.6389 -36.3265
rtoes 20.3307
lfemur 7.26364 -11.8465 -9.00992
ltibia -5.26168
lfoot -30.1459 6.34566
ltoes 42.3174
738
root 1.16014 17.9416 28.3025 356.203 -84.7761 12.6566
lowerback -5.89171 0.630232 -1.21502
upperback -3.79332 0.799909 -1.87255
thorax -0.591319 0.359294 -1.19934
lowerneck -1.64888 -2.71179 0.515723
upperneck 1.45277 -3.68292 2.35267
head 0.750713 -1.81974 0.590148
rclavicle 1.61264e-014 -2.38542e-015
rhumerus -15.6025 -43.1151 1.49926
rradius 20.5482
rwrist 17.4067
rhand -14.1679 -48.8205
rfingers 7.12502
rthumb 11.9672 -438.458
lclavicle 1.61264e-014 -2.38542e-015
lhumerus 1.80777 13.327 -0.459304
lradius 22.3577
lwrist 13.1395
lhand -13.8918 -7.95654
lfingers 7.12502
lthumb 12.2334 21.6657
rfemur 11.3991 28.0086 11.3541
rtibia -6.06368
rfoot -47.7334 -35.8127
rtoes 21.4588
lfemur 7.27788 -12.0559 -8.86311
ltibia -5.28107
lfoot -30.3104 6.65484
ltoes 41.6312
739
root 1.1665 17.9419 28.2993 357.222 -84.804 11.6397
lowerback -5.8564 0.674173 -1.10563
upperback -3.80674 0.852734 -1.85396
thorax -0.622604 0.384352 -1.23928
lowerneck -1.58054 -2.72607 0.386061
upperneck 1.4609 -3.69959 2.42023
head 0.746201 -1.82851 0.632886
rclavicle 7.92654e-015 -2.34566e-014
rhumerus -15.3537 -44.4284 1.54832
rradius 20.2094
rwrist 18.7566
rhand -14.4726 -48.7243
rfingers 7.12502
rthumb 11.6734 -438.379
lclavicle 7.92654e-015 -2.34566e-014
lhumerus 1.97912 13.4405 -0.358391
lradius 22.2904
lwrist 12.9872
lhand -14.1078 -8.02551
lfingers 7.12502
lthumb 12.0251 21.609
rfemur 11.3703 28.1496 11.51
rtibia -6.00667
rfoot -48.008 -35.6288
rtoes 22.0149
lfemur 7.3023 -12.328 -8.8029
ltibia -5.33207
lfoot -30.615 6.5672
ltoes 42.1221
